<svg xmlns="http://www.w3.org/2000/svg" version="1.1" xmlns:xlink="http://www.w3.org/1999/xlink" xmlns:svgjs="http://svgjs.com/svgjs" width="1440" height="560" preserveAspectRatio="none" viewBox="0 0 1440 560"><g mask="url(&quot;#SvgjsMask1466&quot;)" fill="none"><rect width="1440" height="560" x="0" y="0" fill="url(#SvgjsLinearGradient1467)"></rect><path d="M1440 0L988.22 0L1440 221.86z" fill="rgba(255, 255, 255, .1)"></path><path d="M988.22 0L1440 221.86L1440 365.53L958.6800000000001 0z" fill="rgba(255, 255, 255, .075)"></path><path d="M958.6800000000001 0L1440 365.53L1440 417.38L508.4800000000001 0z" fill="rgba(255, 255, 255, .05)"></path><path d="M508.48 0L1440 417.38L1440 455.74L394.78000000000003 0z" fill="rgba(255, 255, 255, .025)"></path><path d="M0 560L394.01 560L0 385.69z" fill="rgba(0, 0, 0, .1)"></path><path d="M0 385.69L394.01 560L915.61 560L0 216.38z" fill="rgba(0, 0, 0, .075)"></path><path d="M0 216.38L915.61 560L1125.18 560L0 188.76999999999998z" fill="rgba(0, 0, 0, .05)"></path><path d="M0 188.76999999999998L1125.18 560L1222.8600000000001 560L0 161.92999999999998z" fill="rgba(0, 0, 0, .025)"></path></g><defs><mask id="SvgjsMask1466"><rect width="1440" height="560" fill="#ffffff"></rect></mask><linearGradient x1="15.28%" y1="-39.29%" x2="84.72%" y2="139.29%" gradientUnits="userSpaceOnUse" id="SvgjsLinearGradient1467"><stop stop-color="rgba(190, 222, 255, 1)" offset="0"></stop><stop stop-color="rgba(128, 153, 186, 1)" offset="1"></stop></linearGradient></defs></svg>